<?xml version="1.0" encoding="UTF-8" standalone="no"?><svg xmlns="http://www.w3.org/2000/svg" xmlns:xlink="http://www.w3.org/1999/xlink" contentStyleType="text/css" height="348px" preserveAspectRatio="none" style="width:345px;height:348px;background:#FFFFFF;" version="1.1" viewBox="0 0 345 348" width="345px" zoomAndPan="magnify"><defs/><g><!--MD5=[d924dfdf68099e9540f3e81f965a0f3b]
class IA--><g id="elem_IA"><rect codeLine="2" fill="#F1F1F1" height="65.6094" id="IA" rx="2.5" ry="2.5" style="stroke:#181818;stroke-width:0.5;" width="85" x="68" y="7"/><ellipse cx="101" cy="23" fill="#B4A7E5" rx="11" ry="11" style="stroke:#181818;stroke-width:1.0;"/><path d="M101.9531,19.6406 L101.9531,26.2969 L103.6719,26.2969 Q104.2813,26.2969 104.5469,26.5313 Q104.8125,26.7656 104.8125,27.1563 Q104.8125,27.5313 104.5469,27.7656 Q104.2813,28 103.6719,28 L98.5313,28 Q97.9219,28 97.6563,27.7656 Q97.3906,27.5313 97.3906,27.1406 Q97.3906,26.7656 97.6563,26.5313 Q97.9219,26.2969 98.5313,26.2969 L100.25,26.2969 L100.25,19.6406 L98.5313,19.6406 Q97.9219,19.6406 97.6563,19.4063 Q97.3906,19.1719 97.3906,18.7813 Q97.3906,18.4063 97.6563,18.1719 Q97.9219,17.9375 98.5313,17.9375 L103.6719,17.9375 Q104.2813,17.9375 104.5469,18.1719 Q104.8125,18.4063 104.8125,18.7813 Q104.8125,19.1719 104.5469,19.4063 Q104.2813,19.6406 103.6719,19.6406 L101.9531,19.6406 Z " fill="#000000"/><text fill="#000000" font-family="sans-serif" font-size="14" font-style="italic" lengthAdjust="spacing" textLength="13" x="119" y="28.7285">IA</text><line style="stroke:#181818;stroke-width:0.5;" x1="69" x2="152" y1="39" y2="39"/><line style="stroke:#181818;stroke-width:0.5;" x1="69" x2="152" y1="47" y2="47"/><text fill="#000000" font-family="sans-serif" font-size="14" lengthAdjust="spacing" textLength="73" x="74" y="65.5332">method_a()</text></g><!--MD5=[a46ee5ce0ceb0380cf446a08a056dce4]
class A--><g id="elem_A"><rect codeLine="6" fill="#F1F1F1" height="65.6094" id="A" rx="2.5" ry="2.5" style="stroke:#181818;stroke-width:0.5;" width="85" x="7" y="141.5"/><ellipse cx="41.8" cy="157.5" fill="#ADD1B2" rx="11" ry="11" style="stroke:#181818;stroke-width:1.0;"/><path d="M44.5656,153.375 Q44.7219,153.1563 44.9094,153.0469 Q45.0969,152.9375 45.3156,152.9375 Q45.6906,152.9375 45.925,153.1953 Q46.1594,153.4531 46.1594,154.0625 L46.1594,155.5156 Q46.1594,156.125 45.925,156.3906 Q45.6906,156.6563 45.3156,156.6563 Q44.9719,156.6563 44.7688,156.4531 Q44.5656,156.2656 44.4563,155.75 Q44.4094,155.3906 44.2219,155.2031 Q43.8938,154.8281 43.2844,154.6094 Q42.675,154.3906 42.05,154.3906 Q41.2844,154.3906 40.6516,154.7188 Q40.0188,155.0469 39.5266,155.7969 Q39.0344,156.5469 39.0344,157.5781 L39.0344,158.6719 Q39.0344,159.9063 39.925,160.7266 Q40.8156,161.5469 42.4094,161.5469 Q43.3469,161.5469 44.0031,161.2969 Q44.3938,161.1406 44.8156,160.7031 Q45.0813,160.4375 45.2297,160.3594 Q45.3781,160.2813 45.5813,160.2813 Q45.9094,160.2813 46.1672,160.5391 Q46.425,160.7969 46.425,161.1406 Q46.425,161.4844 46.0813,161.8906 Q45.5813,162.4688 44.7844,162.7969 Q43.7063,163.25 42.4094,163.25 Q40.8938,163.25 39.6906,162.625 Q38.7063,162.125 38.0188,161.0547 Q37.3313,159.9844 37.3313,158.7031 L37.3313,157.5469 Q37.3313,156.2188 37.9484,155.0703 Q38.5656,153.9219 39.6594,153.3047 Q40.7531,152.6875 41.9875,152.6875 Q42.7219,152.6875 43.3703,152.8516 Q44.0188,153.0156 44.5656,153.375 Z " fill="#000000"/><text fill="#000000" font-family="sans-serif" font-size="14" lengthAdjust="spacing" textLength="9" x="60.2" y="163.2285">A</text><line style="stroke:#181818;stroke-width:0.5;" x1="8" x2="91" y1="173.5" y2="173.5"/><line style="stroke:#181818;stroke-width:0.5;" x1="8" x2="91" y1="181.5" y2="181.5"/><text fill="#000000" font-family="sans-serif" font-size="14" lengthAdjust="spacing" textLength="73" x="13" y="200.0332">method_a()</text></g><!--MD5=[3225751c11376e133f226e6dfaf5ffd0]
class IB--><g id="elem_IB"><rect codeLine="12" fill="#F1F1F1" height="65.6094" id="IB" rx="2.5" ry="2.5" style="stroke:#181818;stroke-width:0.5;" width="85" x="253" y="141.5"/><ellipse cx="286" cy="157.5" fill="#B4A7E5" rx="11" ry="11" style="stroke:#181818;stroke-width:1.0;"/><path d="M286.9531,154.1406 L286.9531,160.7969 L288.6719,160.7969 Q289.2813,160.7969 289.5469,161.0313 Q289.8125,161.2656 289.8125,161.6563 Q289.8125,162.0313 289.5469,162.2656 Q289.2813,162.5 288.6719,162.5 L283.5313,162.5 Q282.9219,162.5 282.6563,162.2656 Q282.3906,162.0313 282.3906,161.6406 Q282.3906,161.2656 282.6563,161.0313 Q282.9219,160.7969 283.5313,160.7969 L285.25,160.7969 L285.25,154.1406 L283.5313,154.1406 Q282.9219,154.1406 282.6563,153.9063 Q282.3906,153.6719 282.3906,153.2813 Q282.3906,152.9063 282.6563,152.6719 Q282.9219,152.4375 283.5313,152.4375 L288.6719,152.4375 Q289.2813,152.4375 289.5469,152.6719 Q289.8125,152.9063 289.8125,153.2813 Q289.8125,153.6719 289.5469,153.9063 Q289.2813,154.1406 288.6719,154.1406 L286.9531,154.1406 Z " fill="#000000"/><text fill="#000000" font-family="sans-serif" font-size="14" font-style="italic" lengthAdjust="spacing" textLength="13" x="304" y="163.2285">IB</text><line style="stroke:#181818;stroke-width:0.5;" x1="254" x2="337" y1="173.5" y2="173.5"/><line style="stroke:#181818;stroke-width:0.5;" x1="254" x2="337" y1="181.5" y2="181.5"/><text fill="#000000" font-family="sans-serif" font-size="14" lengthAdjust="spacing" textLength="73" x="259" y="200.0332">method_b()</text></g><!--MD5=[69c451c751c414e37549b782190fef46]
class B--><g id="elem_B"><rect codeLine="16" fill="#F1F1F1" height="65.6094" id="B" rx="2.5" ry="2.5" style="stroke:#181818;stroke-width:0.5;" width="85" x="191" y="276"/><ellipse cx="225.8" cy="292" fill="#ADD1B2" rx="11" ry="11" style="stroke:#181818;stroke-width:1.0;"/><path d="M228.5656,287.875 Q228.7219,287.6563 228.9094,287.5469 Q229.0969,287.4375 229.3156,287.4375 Q229.6906,287.4375 229.925,287.6953 Q230.1594,287.9531 230.1594,288.5625 L230.1594,290.0156 Q230.1594,290.625 229.925,290.8906 Q229.6906,291.1563 229.3156,291.1563 Q228.9719,291.1563 228.7688,290.9531 Q228.5656,290.7656 228.4563,290.25 Q228.4094,289.8906 228.2219,289.7031 Q227.8938,289.3281 227.2844,289.1094 Q226.675,288.8906 226.05,288.8906 Q225.2844,288.8906 224.6516,289.2188 Q224.0188,289.5469 223.5266,290.2969 Q223.0344,291.0469 223.0344,292.0781 L223.0344,293.1719 Q223.0344,294.4063 223.925,295.2266 Q224.8156,296.0469 226.4094,296.0469 Q227.3469,296.0469 228.0031,295.7969 Q228.3938,295.6406 228.8156,295.2031 Q229.0813,294.9375 229.2297,294.8594 Q229.3781,294.7813 229.5813,294.7813 Q229.9094,294.7813 230.1672,295.0391 Q230.425,295.2969 230.425,295.6406 Q230.425,295.9844 230.0813,296.3906 Q229.5813,296.9688 228.7844,297.2969 Q227.7063,297.75 226.4094,297.75 Q224.8938,297.75 223.6906,297.125 Q222.7063,296.625 222.0188,295.5547 Q221.3313,294.4844 221.3313,293.2031 L221.3313,292.0469 Q221.3313,290.7188 221.9484,289.5703 Q222.5656,288.4219 223.6594,287.8047 Q224.7531,287.1875 225.9875,287.1875 Q226.7219,287.1875 227.3703,287.3516 Q228.0188,287.5156 228.5656,287.875 Z " fill="#000000"/><text fill="#000000" font-family="sans-serif" font-size="14" lengthAdjust="spacing" textLength="9" x="244.2" y="297.7285">B</text><line style="stroke:#181818;stroke-width:0.5;" x1="192" x2="275" y1="308" y2="308"/><line style="stroke:#181818;stroke-width:0.5;" x1="192" x2="275" y1="316" y2="316"/><text fill="#000000" font-family="sans-serif" font-size="14" lengthAdjust="spacing" textLength="73" x="197" y="334.5332">method_b()</text></g><!--MD5=[eea03e73ae4bca5cbad184a553f25f48]
class BAdapter--><g id="elem_BAdapter"><rect codeLine="23" fill="#F1F1F1" height="83.2188" id="BAdapter" rx="2.5" ry="2.5" style="stroke:#181818;stroke-width:0.5;" width="91" x="127" y="133"/><ellipse cx="142" cy="149" fill="#ADD1B2" rx="11" ry="11" style="stroke:#181818;stroke-width:1.0;"/><path d="M144.7656,144.875 Q144.9219,144.6563 145.1094,144.5469 Q145.2969,144.4375 145.5156,144.4375 Q145.8906,144.4375 146.125,144.6953 Q146.3594,144.9531 146.3594,145.5625 L146.3594,147.0156 Q146.3594,147.625 146.125,147.8906 Q145.8906,148.1563 145.5156,148.1563 Q145.1719,148.1563 144.9688,147.9531 Q144.7656,147.7656 144.6563,147.25 Q144.6094,146.8906 144.4219,146.7031 Q144.0938,146.3281 143.4844,146.1094 Q142.875,145.8906 142.25,145.8906 Q141.4844,145.8906 140.8516,146.2188 Q140.2188,146.5469 139.7266,147.2969 Q139.2344,148.0469 139.2344,149.0781 L139.2344,150.1719 Q139.2344,151.4063 140.125,152.2266 Q141.0156,153.0469 142.6094,153.0469 Q143.5469,153.0469 144.2031,152.7969 Q144.5938,152.6406 145.0156,152.2031 Q145.2813,151.9375 145.4297,151.8594 Q145.5781,151.7813 145.7813,151.7813 Q146.1094,151.7813 146.3672,152.0391 Q146.625,152.2969 146.625,152.6406 Q146.625,152.9844 146.2813,153.3906 Q145.7813,153.9688 144.9844,154.2969 Q143.9063,154.75 142.6094,154.75 Q141.0938,154.75 139.8906,154.125 Q138.9063,153.625 138.2188,152.5547 Q137.5313,151.4844 137.5313,150.2031 L137.5313,149.0469 Q137.5313,147.7188 138.1484,146.5703 Q138.7656,145.4219 139.8594,144.8047 Q140.9531,144.1875 142.1875,144.1875 Q142.9219,144.1875 143.5703,144.3516 Q144.2188,144.5156 144.7656,144.875 Z " fill="#000000"/><text fill="#000000" font-family="sans-serif" font-size="14" lengthAdjust="spacing" textLength="59" x="156" y="154.7285">BAdapter</text><line style="stroke:#181818;stroke-width:0.5;" x1="128" x2="217" y1="165" y2="165"/><ellipse cx="138" cy="179.3047" fill="none" rx="3" ry="3" style="stroke:#038048;stroke-width:1.0;"/><text fill="#000000" font-family="sans-serif" font-size="14" lengthAdjust="spacing" textLength="25" x="147" y="183.5332">b: B</text><line style="stroke:#181818;stroke-width:0.5;" x1="128" x2="217" y1="190.6094" y2="190.6094"/><text fill="#000000" font-family="sans-serif" font-size="14" lengthAdjust="spacing" textLength="73" x="133" y="209.1426">method_a()</text></g><!--MD5=[fb406ec422b6f078c5739f91f0ba4a7d]
reverse link IA to A--><g id="link_IA_A"><path codeLine="10" d="M87.28,91.43 C79.59,108.15 71.23,126.29 64.34,141.26 " fill="none" id="IA-backto-A" style="stroke:#181818;stroke-width:1.0;"/><polygon fill="none" points="81.01,88.31,95.73,73.07,93.73,94.17,81.01,88.31" style="stroke:#181818;stroke-width:1.0;"/></g><!--MD5=[894d3da4dda2a98f22ccc665a80ca2f4]
reverse link IB to B--><g id="link_IB_B"><path codeLine="20" d="M271.9,225.93 C264.08,242.65 255.59,260.79 248.59,275.76 " fill="none" id="IB-backto-B" style="stroke:#181818;stroke-width:1.0;"/><polygon fill="none" points="265.67,222.72,280.49,207.57,278.36,228.66,265.67,222.72" style="stroke:#181818;stroke-width:1.0;"/></g><!--MD5=[07e4729fe0f269bd183864f188af4220]
reverse link IA to BAdapter--><g id="link_IA_BAdapter"><path codeLine="28" d="M134.11,91.45 C140.48,105.08 147.3,119.65 153.4,132.68 " fill="none" id="IA-backto-BAdapter" style="stroke:#181818;stroke-width:1.0;"/><polygon fill="none" points="127.64,94.16,125.51,73.07,140.33,88.22,127.64,94.16" style="stroke:#181818;stroke-width:1.0;"/></g><!--MD5=[613e3bce0f6697d3edcdc1185779a3b2]
reverse link BAdapter to B--><g id="link_BAdapter_B"><path codeLine="30" d="M196.84,228.36 C204.24,244.45 212.16,261.64 218.73,275.92 " fill="none" id="BAdapter-backto-B" style="stroke:#181818;stroke-width:1.0;"/><polygon fill="#181818" points="191.3,216.34,190.1776,223.4632,196.3212,227.239,197.4436,220.1158,191.3,216.34" style="stroke:#181818;stroke-width:1.0;"/></g><!--MD5=[941a5fdeb4345fbd1ec77541ccd525aa]
@startuml

interface IA {
    method_a()
}

class A {
    method_a()
}

IA <|- - A

interface IB {
    method_b()
}

class B {
    method_b()
}

IB <|- - B


class BAdapter {
    + b: B
    method_a()
}

IA <|- - BAdapter

BAdapter *- - B

@endulml

PlantUML version 1.2022.7(Mon Aug 22 19:01:30 CEST 2022)
(GPL source distribution)
Java Runtime: Java(TM) SE Runtime Environment
JVM: Java HotSpot(TM) 64-Bit Server VM
Default Encoding: Cp1252
Language: es
Country: ES
--></g></svg>