<?xml version="1.0" encoding="UTF-8" standalone="no"?><svg xmlns="http://www.w3.org/2000/svg" xmlns:xlink="http://www.w3.org/1999/xlink" contentStyleType="text/css" height="544px" preserveAspectRatio="none" style="width:285px;height:544px;background:#FFFFFF;" version="1.1" viewBox="0 0 285 544" width="285px" zoomAndPan="magnify"><defs/><g><!--MD5=[ee80f128756adf0e95ba2af8ad3ecb8c]
class Duck--><g id="elem_Duck"><rect codeLine="3" fill="#F1F1F1" height="83.2188" id="Duck" rx="2.5" ry="2.5" style="stroke:#181818;stroke-width:0.5;" width="94" x="91" y="7"/><ellipse cx="119.05" cy="23" fill="#B4A7E5" rx="11" ry="11" style="stroke:#181818;stroke-width:1.0;"/><path d="M120.0031,19.6406 L120.0031,26.2969 L121.7219,26.2969 Q122.3313,26.2969 122.5969,26.5313 Q122.8625,26.7656 122.8625,27.1563 Q122.8625,27.5313 122.5969,27.7656 Q122.3313,28 121.7219,28 L116.5813,28 Q115.9719,28 115.7063,27.7656 Q115.4406,27.5313 115.4406,27.1406 Q115.4406,26.7656 115.7063,26.5313 Q115.9719,26.2969 116.5813,26.2969 L118.3,26.2969 L118.3,19.6406 L116.5813,19.6406 Q115.9719,19.6406 115.7063,19.4063 Q115.4406,19.1719 115.4406,18.7813 Q115.4406,18.4063 115.7063,18.1719 Q115.9719,17.9375 116.5813,17.9375 L121.7219,17.9375 Q122.3313,17.9375 122.5969,18.1719 Q122.8625,18.4063 122.8625,18.7813 Q122.8625,19.1719 122.5969,19.4063 Q122.3313,19.6406 121.7219,19.6406 L120.0031,19.6406 Z " fill="#000000"/><text fill="#000000" font-family="sans-serif" font-size="14" font-style="italic" lengthAdjust="spacing" textLength="33" x="135.95" y="28.7285">Duck</text><line style="stroke:#181818;stroke-width:0.5;" x1="92" x2="184" y1="39" y2="39"/><line style="stroke:#181818;stroke-width:0.5;" x1="92" x2="184" y1="47" y2="47"/><text fill="#000000" font-family="sans-serif" font-size="14" lengthAdjust="spacing" textLength="82" x="97" y="65.5332">quack(): void</text><text fill="#000000" font-family="sans-serif" font-size="14" lengthAdjust="spacing" textLength="61" x="97" y="83.1426">fly(): voiid</text></g><!--MD5=[3514eda1f9578311a848538d86a3af13]
class MallardDuck--><g id="elem_MallardDuck"><rect codeLine="8" fill="#F1F1F1" height="83.2188" id="MallardDuck" rx="2.5" ry="2.5" style="stroke:#181818;stroke-width:0.5;" width="110" x="7" y="159"/><ellipse cx="22" cy="175" fill="#ADD1B2" rx="11" ry="11" style="stroke:#181818;stroke-width:1.0;"/><path d="M24.7656,170.875 Q24.9219,170.6563 25.1094,170.5469 Q25.2969,170.4375 25.5156,170.4375 Q25.8906,170.4375 26.125,170.6953 Q26.3594,170.9531 26.3594,171.5625 L26.3594,173.0156 Q26.3594,173.625 26.125,173.8906 Q25.8906,174.1563 25.5156,174.1563 Q25.1719,174.1563 24.9688,173.9531 Q24.7656,173.7656 24.6563,173.25 Q24.6094,172.8906 24.4219,172.7031 Q24.0938,172.3281 23.4844,172.1094 Q22.875,171.8906 22.25,171.8906 Q21.4844,171.8906 20.8516,172.2188 Q20.2188,172.5469 19.7266,173.2969 Q19.2344,174.0469 19.2344,175.0781 L19.2344,176.1719 Q19.2344,177.4063 20.125,178.2266 Q21.0156,179.0469 22.6094,179.0469 Q23.5469,179.0469 24.2031,178.7969 Q24.5938,178.6406 25.0156,178.2031 Q25.2813,177.9375 25.4297,177.8594 Q25.5781,177.7813 25.7813,177.7813 Q26.1094,177.7813 26.3672,178.0391 Q26.625,178.2969 26.625,178.6406 Q26.625,178.9844 26.2813,179.3906 Q25.7813,179.9688 24.9844,180.2969 Q23.9063,180.75 22.6094,180.75 Q21.0938,180.75 19.8906,180.125 Q18.9063,179.625 18.2188,178.5547 Q17.5313,177.4844 17.5313,176.2031 L17.5313,175.0469 Q17.5313,173.7188 18.1484,172.5703 Q18.7656,171.4219 19.8594,170.8047 Q20.9531,170.1875 22.1875,170.1875 Q22.9219,170.1875 23.5703,170.3516 Q24.2188,170.5156 24.7656,170.875 Z " fill="#000000"/><text fill="#000000" font-family="sans-serif" font-size="14" lengthAdjust="spacing" textLength="78" x="36" y="180.7285">MallardDuck</text><line style="stroke:#181818;stroke-width:0.5;" x1="8" x2="116" y1="191" y2="191"/><line style="stroke:#181818;stroke-width:0.5;" x1="8" x2="116" y1="199" y2="199"/><text fill="#000000" font-family="sans-serif" font-size="14" lengthAdjust="spacing" textLength="82" x="13" y="217.5332">quack(): void</text><text fill="#000000" font-family="sans-serif" font-size="14" lengthAdjust="spacing" textLength="58" x="13" y="235.1426">fly(): void</text></g><!--MD5=[bf7a5cbdfa65bcbb1270d0b4f51e1923]
class Turkey--><g id="elem_Turkey"><rect codeLine="15" fill="#F1F1F1" height="83.2188" id="Turkey" rx="2.5" ry="2.5" style="stroke:#181818;stroke-width:0.5;" width="99" x="165.5" y="311"/><ellipse cx="190.4" cy="327" fill="#B4A7E5" rx="11" ry="11" style="stroke:#181818;stroke-width:1.0;"/><path d="M191.3531,323.6406 L191.3531,330.2969 L193.0719,330.2969 Q193.6813,330.2969 193.9469,330.5313 Q194.2125,330.7656 194.2125,331.1563 Q194.2125,331.5313 193.9469,331.7656 Q193.6813,332 193.0719,332 L187.9313,332 Q187.3219,332 187.0563,331.7656 Q186.7906,331.5313 186.7906,331.1406 Q186.7906,330.7656 187.0563,330.5313 Q187.3219,330.2969 187.9313,330.2969 L189.65,330.2969 L189.65,323.6406 L187.9313,323.6406 Q187.3219,323.6406 187.0563,323.4063 Q186.7906,323.1719 186.7906,322.7813 Q186.7906,322.4063 187.0563,322.1719 Q187.3219,321.9375 187.9313,321.9375 L193.0719,321.9375 Q193.6813,321.9375 193.9469,322.1719 Q194.2125,322.4063 194.2125,322.7813 Q194.2125,323.1719 193.9469,323.4063 Q193.6813,323.6406 193.0719,323.6406 L191.3531,323.6406 Z " fill="#000000"/><text fill="#000000" font-family="sans-serif" font-size="14" font-style="italic" lengthAdjust="spacing" textLength="45" x="206.6" y="332.7285">Turkey</text><line style="stroke:#181818;stroke-width:0.5;" x1="166.5" x2="263.5" y1="343" y2="343"/><line style="stroke:#181818;stroke-width:0.5;" x1="166.5" x2="263.5" y1="351" y2="351"/><text fill="#000000" font-family="sans-serif" font-size="14" lengthAdjust="spacing" textLength="87" x="171.5" y="369.5332">gooble(): void</text><text fill="#000000" font-family="sans-serif" font-size="14" lengthAdjust="spacing" textLength="58" x="171.5" y="387.1426">fly(): void</text></g><!--MD5=[38e07a88cd9440255bbd8837f7d6cd2e]
class WildTurkey--><g id="elem_WildTurkey"><rect codeLine="20" fill="#F1F1F1" height="83.2188" id="WildTurkey" rx="2.5" ry="2.5" style="stroke:#181818;stroke-width:0.5;" width="103" x="163.5" y="454"/><ellipse cx="178.5" cy="470" fill="#ADD1B2" rx="11" ry="11" style="stroke:#181818;stroke-width:1.0;"/><path d="M181.2656,465.875 Q181.4219,465.6563 181.6094,465.5469 Q181.7969,465.4375 182.0156,465.4375 Q182.3906,465.4375 182.625,465.6953 Q182.8594,465.9531 182.8594,466.5625 L182.8594,468.0156 Q182.8594,468.625 182.625,468.8906 Q182.3906,469.1563 182.0156,469.1563 Q181.6719,469.1563 181.4688,468.9531 Q181.2656,468.7656 181.1563,468.25 Q181.1094,467.8906 180.9219,467.7031 Q180.5938,467.3281 179.9844,467.1094 Q179.375,466.8906 178.75,466.8906 Q177.9844,466.8906 177.3516,467.2188 Q176.7188,467.5469 176.2266,468.2969 Q175.7344,469.0469 175.7344,470.0781 L175.7344,471.1719 Q175.7344,472.4063 176.625,473.2266 Q177.5156,474.0469 179.1094,474.0469 Q180.0469,474.0469 180.7031,473.7969 Q181.0938,473.6406 181.5156,473.2031 Q181.7813,472.9375 181.9297,472.8594 Q182.0781,472.7813 182.2813,472.7813 Q182.6094,472.7813 182.8672,473.0391 Q183.125,473.2969 183.125,473.6406 Q183.125,473.9844 182.7813,474.3906 Q182.2813,474.9688 181.4844,475.2969 Q180.4063,475.75 179.1094,475.75 Q177.5938,475.75 176.3906,475.125 Q175.4063,474.625 174.7188,473.5547 Q174.0313,472.4844 174.0313,471.2031 L174.0313,470.0469 Q174.0313,468.7188 174.6484,467.5703 Q175.2656,466.4219 176.3594,465.8047 Q177.4531,465.1875 178.6875,465.1875 Q179.4219,465.1875 180.0703,465.3516 Q180.7188,465.5156 181.2656,465.875 Z " fill="#000000"/><text fill="#000000" font-family="sans-serif" font-size="14" lengthAdjust="spacing" textLength="71" x="192.5" y="475.7285">WildTurkey</text><line style="stroke:#181818;stroke-width:0.5;" x1="164.5" x2="265.5" y1="486" y2="486"/><line style="stroke:#181818;stroke-width:0.5;" x1="164.5" x2="265.5" y1="494" y2="494"/><text fill="#000000" font-family="sans-serif" font-size="14" lengthAdjust="spacing" textLength="87" x="169.5" y="512.5332">gobble(): void</text><text fill="#000000" font-family="sans-serif" font-size="14" lengthAdjust="spacing" textLength="58" x="169.5" y="530.1426">fly(): void</text></g><!--MD5=[f6d6628275d2be472261877654ca6f40]
class TurkeyAdapter--><g id="elem_TurkeyAdapter"><rect codeLine="27" fill="#F1F1F1" height="100.8281" id="TurkeyAdapter" rx="2.5" ry="2.5" style="stroke:#181818;stroke-width:0.5;" width="126" x="152" y="150"/><ellipse cx="167" cy="166" fill="#ADD1B2" rx="11" ry="11" style="stroke:#181818;stroke-width:1.0;"/><path d="M169.7656,161.875 Q169.9219,161.6563 170.1094,161.5469 Q170.2969,161.4375 170.5156,161.4375 Q170.8906,161.4375 171.125,161.6953 Q171.3594,161.9531 171.3594,162.5625 L171.3594,164.0156 Q171.3594,164.625 171.125,164.8906 Q170.8906,165.1563 170.5156,165.1563 Q170.1719,165.1563 169.9688,164.9531 Q169.7656,164.7656 169.6563,164.25 Q169.6094,163.8906 169.4219,163.7031 Q169.0938,163.3281 168.4844,163.1094 Q167.875,162.8906 167.25,162.8906 Q166.4844,162.8906 165.8516,163.2188 Q165.2188,163.5469 164.7266,164.2969 Q164.2344,165.0469 164.2344,166.0781 L164.2344,167.1719 Q164.2344,168.4063 165.125,169.2266 Q166.0156,170.0469 167.6094,170.0469 Q168.5469,170.0469 169.2031,169.7969 Q169.5938,169.6406 170.0156,169.2031 Q170.2813,168.9375 170.4297,168.8594 Q170.5781,168.7813 170.7813,168.7813 Q171.1094,168.7813 171.3672,169.0391 Q171.625,169.2969 171.625,169.6406 Q171.625,169.9844 171.2813,170.3906 Q170.7813,170.9688 169.9844,171.2969 Q168.9063,171.75 167.6094,171.75 Q166.0938,171.75 164.8906,171.125 Q163.9063,170.625 163.2188,169.5547 Q162.5313,168.4844 162.5313,167.2031 L162.5313,166.0469 Q162.5313,164.7188 163.1484,163.5703 Q163.7656,162.4219 164.8594,161.8047 Q165.9531,161.1875 167.1875,161.1875 Q167.9219,161.1875 168.5703,161.3516 Q169.2188,161.5156 169.7656,161.875 Z " fill="#000000"/><text fill="#000000" font-family="sans-serif" font-size="14" lengthAdjust="spacing" textLength="94" x="181" y="171.7285">TurkeyAdapter</text><line style="stroke:#181818;stroke-width:0.5;" x1="153" x2="277" y1="182" y2="182"/><ellipse cx="163" cy="196.3047" fill="none" rx="3" ry="3" style="stroke:#038048;stroke-width:1.0;"/><text fill="#000000" font-family="sans-serif" font-size="14" lengthAdjust="spacing" textLength="91" x="172" y="200.5332">turkey: Turkey</text><line style="stroke:#181818;stroke-width:0.5;" x1="153" x2="277" y1="207.6094" y2="207.6094"/><text fill="#000000" font-family="sans-serif" font-size="14" lengthAdjust="spacing" textLength="82" x="158" y="226.1426">quack(): void</text><text fill="#000000" font-family="sans-serif" font-size="14" lengthAdjust="spacing" textLength="58" x="158" y="243.752">fly(): void</text></g><!--MD5=[9e6b36c82301a4b445229ba9614207d2]
reverse link Duck to MallardDuck--><g id="link_Duck_MallardDuck"><path codeLine="13" d="M108.26,108.2 C99.67,125.16 90.48,143.28 82.58,158.88 " fill="none" id="Duck-backto-MallardDuck" style="stroke:#181818;stroke-width:1.0;stroke-dasharray:7.0,7.0;"/><polygon fill="none" points="102.15,104.77,117.43,90.09,114.64,111.1,102.15,104.77" style="stroke:#181818;stroke-width:1.0;"/></g><!--MD5=[4e81e615b511324368c655841bd4203f]
reverse link Turkey to WildTurkey--><g id="link_Turkey_WildTurkey"><path codeLine="25" d="M215,414.51 C215,427.79 215,441.54 215,453.81 " fill="none" id="Turkey-backto-WildTurkey" style="stroke:#181818;stroke-width:1.0;stroke-dasharray:7.0,7.0;"/><polygon fill="none" points="208,414.28,215,394.28,222,414.28,208,414.28" style="stroke:#181818;stroke-width:1.0;"/></g><!--MD5=[4119507705d5a71ddd00fbf84b018ba6]
reverse link Duck to TurkeyAdapter--><g id="link_Duck_TurkeyAdapter"><path codeLine="33" d="M168.12,108.18 C175.18,121.94 182.64,136.46 189.48,149.78 " fill="none" id="Duck-backto-TurkeyAdapter" style="stroke:#181818;stroke-width:1.0;stroke-dasharray:7.0,7.0;"/><polygon fill="none" points="161.74,111.08,158.84,90.09,174.2,104.69,161.74,111.08" style="stroke:#181818;stroke-width:1.0;"/></g><!--MD5=[da0b8bdbc25f8a28711ac2fd5a23dcc4]
reverse link TurkeyAdapter to Turkey--><g id="link_TurkeyAdapter_Turkey"><path codeLine="35" d="M215,264.46 C215,280.03 215,296.32 215,310.53 " fill="none" id="TurkeyAdapter-backto-Turkey" style="stroke:#181818;stroke-width:1.0;"/><polygon fill="#181818" points="215,251.03,211,257.03,215,263.03,219,257.03,215,251.03" style="stroke:#181818;stroke-width:1.0;"/></g><!--MD5=[ff4edc24a69025351579de1e86ecaf2d]
@startuml


interface Duck{
    quack(): void
    fly(): voiid
}

class MallardDuck {
    quack(): void
    fly(): void
}

Duck <|.. MallardDuck

interface Turkey{
    gooble(): void
    fly(): void
}

class WildTurkey {
    gobble(): void
    fly(): void
}

Turkey <|.. WildTurkey  

class TurkeyAdapter {
    + turkey: Turkey
    quack(): void
    fly(): void
}

Duck <|.. TurkeyAdapter

TurkeyAdapter *- - Turkey


@enduml

PlantUML version 1.2022.7(Mon Aug 22 19:01:30 CEST 2022)
(GPL source distribution)
Java Runtime: Java(TM) SE Runtime Environment
JVM: Java HotSpot(TM) 64-Bit Server VM
Default Encoding: Cp1252
Language: es
Country: ES
--></g></svg>