<?xml version="1.0" encoding="UTF-8" standalone="no"?><svg xmlns="http://www.w3.org/2000/svg" xmlns:xlink="http://www.w3.org/1999/xlink" contentStyleType="text/css" height="402px" preserveAspectRatio="none" style="width:1169px;height:402px;background:#FFFFFF;" version="1.1" viewBox="0 0 1169 402" width="1169px" zoomAndPan="magnify"><defs/><g><!--MD5=[b58072b858f9146d65eb7acbe5207fec]
class VideoExporter--><g id="elem_VideoExporter"><rect codeLine="2" fill="#F1F1F1" height="83.2188" id="VideoExporter" rx="2.5" ry="2.5" style="stroke:#181818;stroke-width:0.5;" width="202" x="308.5" y="151"/><ellipse cx="360.75" cy="167" fill="#A9DCDF" rx="11" ry="11" style="stroke:#181818;stroke-width:1.0;"/><path d="M362.9375,168.7656 L358.7969,168.7656 L358.375,169.7969 L358.7969,169.7969 Q359.4063,169.7969 359.6719,170.0313 Q359.9375,170.2656 359.9375,170.6563 Q359.9375,171.0313 359.6719,171.2656 Q359.4063,171.5 358.7969,171.5 L356.5,171.5 Q355.8906,171.5 355.6328,171.2656 Q355.375,171.0313 355.375,170.6406 Q355.375,170.2656 355.6484,170.0234 Q355.9219,169.7813 356.5469,169.7969 L359.2188,163.1406 L358.1094,163.1406 Q357.5,163.1406 357.2344,162.9063 Q356.9688,162.6719 356.9688,162.2813 Q356.9688,161.9063 357.2344,161.6719 Q357.5,161.4375 358.1094,161.4375 L361.7813,161.4375 L365.1719,169.7969 Q365.7656,169.7969 365.9531,169.9375 Q366.3438,170.2031 366.3438,170.6563 Q366.3438,171.0313 366.0859,171.2656 Q365.8281,171.5 365.2188,171.5 L362.9219,171.5 Q362.3125,171.5 362.0469,171.2656 Q361.7813,171.0313 361.7813,170.6406 Q361.7813,170.2656 362.0469,170.0313 Q362.3125,169.7969 362.9219,169.7969 L363.3438,169.7969 L362.9375,168.7656 Z M362.2188,167.0625 L360.8594,163.6875 L359.4844,167.0625 L362.2188,167.0625 Z " fill="#000000"/><text fill="#000000" font-family="sans-serif" font-size="14" font-style="italic" lengthAdjust="spacing" textLength="89" x="381.25" y="172.7285">VideoExporter</text><line style="stroke:#181818;stroke-width:0.5;" x1="309.5" x2="509.5" y1="183" y2="183"/><line style="stroke:#181818;stroke-width:0.5;" x1="309.5" x2="509.5" y1="191" y2="191"/><ellipse cx="319.5" cy="205.3047" fill="#84BE84" rx="3" ry="3" style="stroke:#038048;stroke-width:1.0;"/><text fill="#000000" font-family="sans-serif" font-size="14" font-style="italic" lengthAdjust="spacing" textLength="176" x="328.5" y="209.5332">prepare_export(video_data)</text><ellipse cx="319.5" cy="222.9141" fill="#84BE84" rx="3" ry="3" style="stroke:#038048;stroke-width:1.0;"/><text fill="#000000" font-family="sans-serif" font-size="14" font-style="italic" lengthAdjust="spacing" textLength="109" x="328.5" y="227.1426">do_export(folder)</text></g><!--MD5=[01af78d0287a8092f17c2d7e630089d5]
class LosslessVideoExporter--><g id="elem_LosslessVideoExporter"><rect codeLine="7" fill="#F1F1F1" height="83.2188" id="LosslessVideoExporter" rx="2.5" ry="2.5" style="stroke:#181818;stroke-width:0.5;" width="203" x="7" y="312"/><ellipse cx="34.15" cy="328" fill="#ADD1B2" rx="11" ry="11" style="stroke:#181818;stroke-width:1.0;"/><path d="M36.9156,323.875 Q37.0719,323.6563 37.2594,323.5469 Q37.4469,323.4375 37.6656,323.4375 Q38.0406,323.4375 38.275,323.6953 Q38.5094,323.9531 38.5094,324.5625 L38.5094,326.0156 Q38.5094,326.625 38.275,326.8906 Q38.0406,327.1563 37.6656,327.1563 Q37.3219,327.1563 37.1188,326.9531 Q36.9156,326.7656 36.8063,326.25 Q36.7594,325.8906 36.5719,325.7031 Q36.2438,325.3281 35.6344,325.1094 Q35.025,324.8906 34.4,324.8906 Q33.6344,324.8906 33.0016,325.2188 Q32.3688,325.5469 31.8766,326.2969 Q31.3844,327.0469 31.3844,328.0781 L31.3844,329.1719 Q31.3844,330.4063 32.275,331.2266 Q33.1656,332.0469 34.7594,332.0469 Q35.6969,332.0469 36.3531,331.7969 Q36.7438,331.6406 37.1656,331.2031 Q37.4313,330.9375 37.5797,330.8594 Q37.7281,330.7813 37.9313,330.7813 Q38.2594,330.7813 38.5172,331.0391 Q38.775,331.2969 38.775,331.6406 Q38.775,331.9844 38.4313,332.3906 Q37.9313,332.9688 37.1344,333.2969 Q36.0563,333.75 34.7594,333.75 Q33.2438,333.75 32.0406,333.125 Q31.0563,332.625 30.3688,331.5547 Q29.6813,330.4844 29.6813,329.2031 L29.6813,328.0469 Q29.6813,326.7188 30.2984,325.5703 Q30.9156,324.4219 32.0094,323.8047 Q33.1031,323.1875 34.3375,323.1875 Q35.0719,323.1875 35.7203,323.3516 Q36.3688,323.5156 36.9156,323.875 Z " fill="#000000"/><text fill="#000000" font-family="sans-serif" font-size="14" lengthAdjust="spacing" textLength="144" x="50.85" y="333.7285">LosslessVideoExporter</text><line style="stroke:#181818;stroke-width:0.5;" x1="8" x2="209" y1="344" y2="344"/><line style="stroke:#181818;stroke-width:0.5;" x1="8" x2="209" y1="352" y2="352"/><ellipse cx="18" cy="366.3047" fill="#84BE84" rx="3" ry="3" style="stroke:#038048;stroke-width:1.0;"/><text fill="#000000" font-family="sans-serif" font-size="14" lengthAdjust="spacing" textLength="177" x="27" y="370.5332">prepare_export(video_data)</text><ellipse cx="18" cy="383.9141" fill="#84BE84" rx="3" ry="3" style="stroke:#038048;stroke-width:1.0;"/><text fill="#000000" font-family="sans-serif" font-size="14" lengthAdjust="spacing" textLength="109" x="27" y="388.1426">do_export(folder)</text></g><!--MD5=[fc20757de8cdaf5899c672a245d2beb4]
class H264BPVideoExporter--><g id="elem_H264BPVideoExporter"><rect codeLine="11" fill="#F1F1F1" height="83.2188" id="H264BPVideoExporter" rx="2.5" ry="2.5" style="stroke:#181818;stroke-width:0.5;" width="203" x="721" y="312"/><ellipse cx="749.95" cy="328" fill="#ADD1B2" rx="11" ry="11" style="stroke:#181818;stroke-width:1.0;"/><path d="M752.7156,323.875 Q752.8719,323.6563 753.0594,323.5469 Q753.2469,323.4375 753.4656,323.4375 Q753.8406,323.4375 754.075,323.6953 Q754.3094,323.9531 754.3094,324.5625 L754.3094,326.0156 Q754.3094,326.625 754.075,326.8906 Q753.8406,327.1563 753.4656,327.1563 Q753.1219,327.1563 752.9188,326.9531 Q752.7156,326.7656 752.6063,326.25 Q752.5594,325.8906 752.3719,325.7031 Q752.0438,325.3281 751.4344,325.1094 Q750.825,324.8906 750.2,324.8906 Q749.4344,324.8906 748.8016,325.2188 Q748.1688,325.5469 747.6766,326.2969 Q747.1844,327.0469 747.1844,328.0781 L747.1844,329.1719 Q747.1844,330.4063 748.075,331.2266 Q748.9656,332.0469 750.5594,332.0469 Q751.4969,332.0469 752.1531,331.7969 Q752.5438,331.6406 752.9656,331.2031 Q753.2313,330.9375 753.3797,330.8594 Q753.5281,330.7813 753.7313,330.7813 Q754.0594,330.7813 754.3172,331.0391 Q754.575,331.2969 754.575,331.6406 Q754.575,331.9844 754.2313,332.3906 Q753.7313,332.9688 752.9344,333.2969 Q751.8563,333.75 750.5594,333.75 Q749.0438,333.75 747.8406,333.125 Q746.8563,332.625 746.1688,331.5547 Q745.4813,330.4844 745.4813,329.2031 L745.4813,328.0469 Q745.4813,326.7188 746.0984,325.5703 Q746.7156,324.4219 747.8094,323.8047 Q748.9031,323.1875 750.1375,323.1875 Q750.8719,323.1875 751.5203,323.3516 Q752.1688,323.5156 752.7156,323.875 Z " fill="#000000"/><text fill="#000000" font-family="sans-serif" font-size="14" lengthAdjust="spacing" textLength="140" x="767.05" y="333.7285">H264BPVideoExporter</text><line style="stroke:#181818;stroke-width:0.5;" x1="722" x2="923" y1="344" y2="344"/><line style="stroke:#181818;stroke-width:0.5;" x1="722" x2="923" y1="352" y2="352"/><ellipse cx="732" cy="366.3047" fill="#84BE84" rx="3" ry="3" style="stroke:#038048;stroke-width:1.0;"/><text fill="#000000" font-family="sans-serif" font-size="14" lengthAdjust="spacing" textLength="177" x="741" y="370.5332">prepare_export(video_data)</text><ellipse cx="732" cy="383.9141" fill="#84BE84" rx="3" ry="3" style="stroke:#038048;stroke-width:1.0;"/><text fill="#000000" font-family="sans-serif" font-size="14" lengthAdjust="spacing" textLength="109" x="741" y="388.1426">do_export(folder)</text></g><!--MD5=[7abc2be5e0026c2255403618c865abaf]
class H264Hi422PVideoExporter--><g id="elem_H264Hi422PVideoExporter"><rect codeLine="15" fill="#F1F1F1" height="83.2188" id="H264Hi422PVideoExporter" rx="2.5" ry="2.5" style="stroke:#181818;stroke-width:0.5;" width="203" x="483" y="312"/><ellipse cx="499.8" cy="328" fill="#ADD1B2" rx="11" ry="11" style="stroke:#181818;stroke-width:1.0;"/><path d="M502.5656,323.875 Q502.7219,323.6563 502.9094,323.5469 Q503.0969,323.4375 503.3156,323.4375 Q503.6906,323.4375 503.925,323.6953 Q504.1594,323.9531 504.1594,324.5625 L504.1594,326.0156 Q504.1594,326.625 503.925,326.8906 Q503.6906,327.1563 503.3156,327.1563 Q502.9719,327.1563 502.7688,326.9531 Q502.5656,326.7656 502.4563,326.25 Q502.4094,325.8906 502.2219,325.7031 Q501.8938,325.3281 501.2844,325.1094 Q500.675,324.8906 500.05,324.8906 Q499.2844,324.8906 498.6516,325.2188 Q498.0188,325.5469 497.5266,326.2969 Q497.0344,327.0469 497.0344,328.0781 L497.0344,329.1719 Q497.0344,330.4063 497.925,331.2266 Q498.8156,332.0469 500.4094,332.0469 Q501.3469,332.0469 502.0031,331.7969 Q502.3938,331.6406 502.8156,331.2031 Q503.0813,330.9375 503.2297,330.8594 Q503.3781,330.7813 503.5813,330.7813 Q503.9094,330.7813 504.1672,331.0391 Q504.425,331.2969 504.425,331.6406 Q504.425,331.9844 504.0813,332.3906 Q503.5813,332.9688 502.7844,333.2969 Q501.7063,333.75 500.4094,333.75 Q498.8938,333.75 497.6906,333.125 Q496.7063,332.625 496.0188,331.5547 Q495.3313,330.4844 495.3313,329.2031 L495.3313,328.0469 Q495.3313,326.7188 495.9484,325.5703 Q496.5656,324.4219 497.6594,323.8047 Q498.7531,323.1875 499.9875,323.1875 Q500.7219,323.1875 501.3703,323.3516 Q502.0188,323.5156 502.5656,323.875 Z " fill="#000000"/><text fill="#000000" font-family="sans-serif" font-size="14" lengthAdjust="spacing" textLength="167" x="514.2" y="333.7285">H264Hi422PVideoExporter</text><line style="stroke:#181818;stroke-width:0.5;" x1="484" x2="685" y1="344" y2="344"/><line style="stroke:#181818;stroke-width:0.5;" x1="484" x2="685" y1="352" y2="352"/><ellipse cx="494" cy="366.3047" fill="#84BE84" rx="3" ry="3" style="stroke:#038048;stroke-width:1.0;"/><text fill="#000000" font-family="sans-serif" font-size="14" lengthAdjust="spacing" textLength="177" x="503" y="370.5332">prepare_export(video_data)</text><ellipse cx="494" cy="383.9141" fill="#84BE84" rx="3" ry="3" style="stroke:#038048;stroke-width:1.0;"/><text fill="#000000" font-family="sans-serif" font-size="14" lengthAdjust="spacing" textLength="109" x="503" y="388.1426">do_export(folder)</text></g><!--MD5=[d5b4892088ab48e9eda3957ccd71395d]
class AudioExporter--><g id="elem_AudioExporter"><rect codeLine="25" fill="#F1F1F1" height="83.2188" id="AudioExporter" rx="2.5" ry="2.5" style="stroke:#181818;stroke-width:0.5;" width="202" x="545.5" y="151"/><ellipse cx="597.75" cy="167" fill="#A9DCDF" rx="11" ry="11" style="stroke:#181818;stroke-width:1.0;"/><path d="M599.9375,168.7656 L595.7969,168.7656 L595.375,169.7969 L595.7969,169.7969 Q596.4063,169.7969 596.6719,170.0313 Q596.9375,170.2656 596.9375,170.6563 Q596.9375,171.0313 596.6719,171.2656 Q596.4063,171.5 595.7969,171.5 L593.5,171.5 Q592.8906,171.5 592.6328,171.2656 Q592.375,171.0313 592.375,170.6406 Q592.375,170.2656 592.6484,170.0234 Q592.9219,169.7813 593.5469,169.7969 L596.2188,163.1406 L595.1094,163.1406 Q594.5,163.1406 594.2344,162.9063 Q593.9688,162.6719 593.9688,162.2813 Q593.9688,161.9063 594.2344,161.6719 Q594.5,161.4375 595.1094,161.4375 L598.7813,161.4375 L602.1719,169.7969 Q602.7656,169.7969 602.9531,169.9375 Q603.3438,170.2031 603.3438,170.6563 Q603.3438,171.0313 603.0859,171.2656 Q602.8281,171.5 602.2188,171.5 L599.9219,171.5 Q599.3125,171.5 599.0469,171.2656 Q598.7813,171.0313 598.7813,170.6406 Q598.7813,170.2656 599.0469,170.0313 Q599.3125,169.7969 599.9219,169.7969 L600.3438,169.7969 L599.9375,168.7656 Z M599.2188,167.0625 L597.8594,163.6875 L596.4844,167.0625 L599.2188,167.0625 Z " fill="#000000"/><text fill="#000000" font-family="sans-serif" font-size="14" font-style="italic" lengthAdjust="spacing" textLength="89" x="618.25" y="172.7285">AudioExporter</text><line style="stroke:#181818;stroke-width:0.5;" x1="546.5" x2="746.5" y1="183" y2="183"/><line style="stroke:#181818;stroke-width:0.5;" x1="546.5" x2="746.5" y1="191" y2="191"/><ellipse cx="556.5" cy="205.3047" fill="#84BE84" rx="3" ry="3" style="stroke:#038048;stroke-width:1.0;"/><text fill="#000000" font-family="sans-serif" font-size="14" font-style="italic" lengthAdjust="spacing" textLength="176" x="565.5" y="209.5332">prepare_export(video_data)</text><ellipse cx="556.5" cy="222.9141" fill="#84BE84" rx="3" ry="3" style="stroke:#038048;stroke-width:1.0;"/><text fill="#000000" font-family="sans-serif" font-size="14" font-style="italic" lengthAdjust="spacing" textLength="109" x="565.5" y="227.1426">do_export(folder)</text></g><!--MD5=[60b59215f466f3b2bbff3d9370e82be6]
class AACAudioExporter--><g id="elem_AACAudioExporter"><rect codeLine="29" fill="#F1F1F1" height="83.2188" id="AACAudioExporter" rx="2.5" ry="2.5" style="stroke:#181818;stroke-width:0.5;" width="203" x="959" y="312"/><ellipse cx="998.3" cy="328" fill="#ADD1B2" rx="11" ry="11" style="stroke:#181818;stroke-width:1.0;"/><path d="M1001.0656,323.875 Q1001.2219,323.6563 1001.4094,323.5469 Q1001.5969,323.4375 1001.8156,323.4375 Q1002.1906,323.4375 1002.425,323.6953 Q1002.6594,323.9531 1002.6594,324.5625 L1002.6594,326.0156 Q1002.6594,326.625 1002.425,326.8906 Q1002.1906,327.1563 1001.8156,327.1563 Q1001.4719,327.1563 1001.2688,326.9531 Q1001.0656,326.7656 1000.9563,326.25 Q1000.9094,325.8906 1000.7219,325.7031 Q1000.3938,325.3281 999.7844,325.1094 Q999.175,324.8906 998.55,324.8906 Q997.7844,324.8906 997.1516,325.2188 Q996.5188,325.5469 996.0266,326.2969 Q995.5344,327.0469 995.5344,328.0781 L995.5344,329.1719 Q995.5344,330.4063 996.425,331.2266 Q997.3156,332.0469 998.9094,332.0469 Q999.8469,332.0469 1000.5031,331.7969 Q1000.8938,331.6406 1001.3156,331.2031 Q1001.5813,330.9375 1001.7297,330.8594 Q1001.8781,330.7813 1002.0813,330.7813 Q1002.4094,330.7813 1002.6672,331.0391 Q1002.925,331.2969 1002.925,331.6406 Q1002.925,331.9844 1002.5813,332.3906 Q1002.0813,332.9688 1001.2844,333.2969 Q1000.2063,333.75 998.9094,333.75 Q997.3938,333.75 996.1906,333.125 Q995.2063,332.625 994.5188,331.5547 Q993.8313,330.4844 993.8313,329.2031 L993.8313,328.0469 Q993.8313,326.7188 994.4484,325.5703 Q995.0656,324.4219 996.1594,323.8047 Q997.2531,323.1875 998.4875,323.1875 Q999.2219,323.1875 999.8703,323.3516 Q1000.5188,323.5156 1001.0656,323.875 Z " fill="#000000"/><text fill="#000000" font-family="sans-serif" font-size="14" lengthAdjust="spacing" textLength="117" x="1017.7" y="333.7285">AACAudioExporter</text><line style="stroke:#181818;stroke-width:0.5;" x1="960" x2="1161" y1="344" y2="344"/><line style="stroke:#181818;stroke-width:0.5;" x1="960" x2="1161" y1="352" y2="352"/><ellipse cx="970" cy="366.3047" fill="#84BE84" rx="3" ry="3" style="stroke:#038048;stroke-width:1.0;"/><text fill="#000000" font-family="sans-serif" font-size="14" lengthAdjust="spacing" textLength="177" x="979" y="370.5332">prepare_export(video_data)</text><ellipse cx="970" cy="383.9141" fill="#84BE84" rx="3" ry="3" style="stroke:#038048;stroke-width:1.0;"/><text fill="#000000" font-family="sans-serif" font-size="14" lengthAdjust="spacing" textLength="109" x="979" y="388.1426">do_export(folder)</text></g><!--MD5=[5f6af04be00095bf79017f8bae30d1b2]
class WAVAudioExporter--><g id="elem_WAVAudioExporter"><rect codeLine="33" fill="#F1F1F1" height="83.2188" id="WAVAudioExporter" rx="2.5" ry="2.5" style="stroke:#181818;stroke-width:0.5;" width="203" x="245" y="312"/><ellipse cx="282.95" cy="328" fill="#ADD1B2" rx="11" ry="11" style="stroke:#181818;stroke-width:1.0;"/><path d="M285.7156,323.875 Q285.8719,323.6563 286.0594,323.5469 Q286.2469,323.4375 286.4656,323.4375 Q286.8406,323.4375 287.075,323.6953 Q287.3094,323.9531 287.3094,324.5625 L287.3094,326.0156 Q287.3094,326.625 287.075,326.8906 Q286.8406,327.1563 286.4656,327.1563 Q286.1219,327.1563 285.9188,326.9531 Q285.7156,326.7656 285.6063,326.25 Q285.5594,325.8906 285.3719,325.7031 Q285.0438,325.3281 284.4344,325.1094 Q283.825,324.8906 283.2,324.8906 Q282.4344,324.8906 281.8016,325.2188 Q281.1688,325.5469 280.6766,326.2969 Q280.1844,327.0469 280.1844,328.0781 L280.1844,329.1719 Q280.1844,330.4063 281.075,331.2266 Q281.9656,332.0469 283.5594,332.0469 Q284.4969,332.0469 285.1531,331.7969 Q285.5438,331.6406 285.9656,331.2031 Q286.2313,330.9375 286.3797,330.8594 Q286.5281,330.7813 286.7313,330.7813 Q287.0594,330.7813 287.3172,331.0391 Q287.575,331.2969 287.575,331.6406 Q287.575,331.9844 287.2313,332.3906 Q286.7313,332.9688 285.9344,333.2969 Q284.8563,333.75 283.5594,333.75 Q282.0438,333.75 280.8406,333.125 Q279.8563,332.625 279.1688,331.5547 Q278.4813,330.4844 278.4813,329.2031 L278.4813,328.0469 Q278.4813,326.7188 279.0984,325.5703 Q279.7156,324.4219 280.8094,323.8047 Q281.9031,323.1875 283.1375,323.1875 Q283.8719,323.1875 284.5203,323.3516 Q285.1688,323.5156 285.7156,323.875 Z " fill="#000000"/><text fill="#000000" font-family="sans-serif" font-size="14" lengthAdjust="spacing" textLength="120" x="302.05" y="333.7285">WAVAudioExporter</text><line style="stroke:#181818;stroke-width:0.5;" x1="246" x2="447" y1="344" y2="344"/><line style="stroke:#181818;stroke-width:0.5;" x1="246" x2="447" y1="352" y2="352"/><ellipse cx="256" cy="366.3047" fill="#84BE84" rx="3" ry="3" style="stroke:#038048;stroke-width:1.0;"/><text fill="#000000" font-family="sans-serif" font-size="14" lengthAdjust="spacing" textLength="177" x="265" y="370.5332">prepare_export(video_data)</text><ellipse cx="256" cy="383.9141" fill="#84BE84" rx="3" ry="3" style="stroke:#038048;stroke-width:1.0;"/><text fill="#000000" font-family="sans-serif" font-size="14" lengthAdjust="spacing" textLength="109" x="265" y="388.1426">do_export(folder)</text></g><!--MD5=[6c61c11fdd18020ba5aec4a069103075]
class ExporterFactory--><g id="elem_ExporterFactory"><rect codeLine="41" fill="#F1F1F1" height="83.2188" id="ExporterFactory" rx="2.5" ry="2.5" style="stroke:#181818;stroke-width:0.5;" width="256" x="734.5" y="7"/><ellipse cx="807.75" cy="23" fill="#A9DCDF" rx="11" ry="11" style="stroke:#181818;stroke-width:1.0;"/><path d="M809.9375,24.7656 L805.7969,24.7656 L805.375,25.7969 L805.7969,25.7969 Q806.4063,25.7969 806.6719,26.0313 Q806.9375,26.2656 806.9375,26.6563 Q806.9375,27.0313 806.6719,27.2656 Q806.4063,27.5 805.7969,27.5 L803.5,27.5 Q802.8906,27.5 802.6328,27.2656 Q802.375,27.0313 802.375,26.6406 Q802.375,26.2656 802.6484,26.0234 Q802.9219,25.7813 803.5469,25.7969 L806.2188,19.1406 L805.1094,19.1406 Q804.5,19.1406 804.2344,18.9063 Q803.9688,18.6719 803.9688,18.2813 Q803.9688,17.9063 804.2344,17.6719 Q804.5,17.4375 805.1094,17.4375 L808.7813,17.4375 L812.1719,25.7969 Q812.7656,25.7969 812.9531,25.9375 Q813.3438,26.2031 813.3438,26.6563 Q813.3438,27.0313 813.0859,27.2656 Q812.8281,27.5 812.2188,27.5 L809.9219,27.5 Q809.3125,27.5 809.0469,27.2656 Q808.7813,27.0313 808.7813,26.6406 Q808.7813,26.2656 809.0469,26.0313 Q809.3125,25.7969 809.9219,25.7969 L810.3438,25.7969 L809.9375,24.7656 Z M809.2188,23.0625 L807.8594,19.6875 L806.4844,23.0625 L809.2188,23.0625 Z " fill="#000000"/><text fill="#000000" font-family="sans-serif" font-size="14" font-style="italic" lengthAdjust="spacing" textLength="101" x="828.25" y="28.7285">ExporterFactory</text><line style="stroke:#181818;stroke-width:0.5;" x1="735.5" x2="989.5" y1="39" y2="39"/><line style="stroke:#181818;stroke-width:0.5;" x1="735.5" x2="989.5" y1="47" y2="47"/><ellipse cx="745.5" cy="61.3047" fill="#84BE84" rx="3" ry="3" style="stroke:#038048;stroke-width:1.0;"/><text fill="#000000" font-family="sans-serif" font-size="14" font-style="italic" lengthAdjust="spacing" textLength="228" x="754.5" y="65.5332">get_video_exporter(): VideoExporter</text><ellipse cx="745.5" cy="78.9141" fill="#84BE84" rx="3" ry="3" style="stroke:#038048;stroke-width:1.0;"/><text fill="#000000" font-family="sans-serif" font-size="14" font-style="italic" lengthAdjust="spacing" textLength="230" x="754.5" y="83.1426">get_audio_exporter(): AudioExporter</text></g><!--MD5=[54d6abeafe864e00fa08c3c4c523f6d2]
class FastExporter--><g id="elem_FastExporter"><rect codeLine="46" fill="#F1F1F1" height="83.2188" id="FastExporter" rx="2.5" ry="2.5" style="stroke:#181818;stroke-width:0.5;" width="159" x="977" y="151"/><ellipse cx="1012.7" cy="167" fill="#ADD1B2" rx="11" ry="11" style="stroke:#181818;stroke-width:1.0;"/><path d="M1015.4656,162.875 Q1015.6219,162.6563 1015.8094,162.5469 Q1015.9969,162.4375 1016.2156,162.4375 Q1016.5906,162.4375 1016.825,162.6953 Q1017.0594,162.9531 1017.0594,163.5625 L1017.0594,165.0156 Q1017.0594,165.625 1016.825,165.8906 Q1016.5906,166.1563 1016.2156,166.1563 Q1015.8719,166.1563 1015.6688,165.9531 Q1015.4656,165.7656 1015.3563,165.25 Q1015.3094,164.8906 1015.1219,164.7031 Q1014.7938,164.3281 1014.1844,164.1094 Q1013.575,163.8906 1012.95,163.8906 Q1012.1844,163.8906 1011.5516,164.2188 Q1010.9188,164.5469 1010.4266,165.2969 Q1009.9344,166.0469 1009.9344,167.0781 L1009.9344,168.1719 Q1009.9344,169.4063 1010.825,170.2266 Q1011.7156,171.0469 1013.3094,171.0469 Q1014.2469,171.0469 1014.9031,170.7969 Q1015.2938,170.6406 1015.7156,170.2031 Q1015.9813,169.9375 1016.1297,169.8594 Q1016.2781,169.7813 1016.4813,169.7813 Q1016.8094,169.7813 1017.0672,170.0391 Q1017.325,170.2969 1017.325,170.6406 Q1017.325,170.9844 1016.9813,171.3906 Q1016.4813,171.9688 1015.6844,172.2969 Q1014.6063,172.75 1013.3094,172.75 Q1011.7938,172.75 1010.5906,172.125 Q1009.6063,171.625 1008.9188,170.5547 Q1008.2313,169.4844 1008.2313,168.2031 L1008.2313,167.0469 Q1008.2313,165.7188 1008.8484,164.5703 Q1009.4656,163.4219 1010.5594,162.8047 Q1011.6531,162.1875 1012.8875,162.1875 Q1013.6219,162.1875 1014.2703,162.3516 Q1014.9188,162.5156 1015.4656,162.875 Z " fill="#000000"/><text fill="#000000" font-family="sans-serif" font-size="14" lengthAdjust="spacing" textLength="81" x="1031.3" y="172.7285">FastExporter</text><line style="stroke:#181818;stroke-width:0.5;" x1="978" x2="1135" y1="183" y2="183"/><line style="stroke:#181818;stroke-width:0.5;" x1="978" x2="1135" y1="191" y2="191"/><ellipse cx="988" cy="205.3047" fill="#84BE84" rx="3" ry="3" style="stroke:#038048;stroke-width:1.0;"/><text fill="#000000" font-family="sans-serif" font-size="14" lengthAdjust="spacing" textLength="132" x="997" y="209.5332">get_video_exporter()</text><ellipse cx="988" cy="222.9141" fill="#84BE84" rx="3" ry="3" style="stroke:#038048;stroke-width:1.0;"/><text fill="#000000" font-family="sans-serif" font-size="14" lengthAdjust="spacing" textLength="133" x="997" y="227.1426">get_audio_exporter()</text></g><!--MD5=[7fd572f17613555fc69181826f744158]
class HighQualityExporter--><g id="elem_HighQualityExporter"><rect codeLine="51" fill="#F1F1F1" height="83.2188" id="HighQualityExporter" rx="2.5" ry="2.5" style="stroke:#181818;stroke-width:0.5;" width="159" x="783" y="151"/><ellipse cx="798.9" cy="167" fill="#ADD1B2" rx="11" ry="11" style="stroke:#181818;stroke-width:1.0;"/><path d="M801.6656,162.875 Q801.8219,162.6563 802.0094,162.5469 Q802.1969,162.4375 802.4156,162.4375 Q802.7906,162.4375 803.025,162.6953 Q803.2594,162.9531 803.2594,163.5625 L803.2594,165.0156 Q803.2594,165.625 803.025,165.8906 Q802.7906,166.1563 802.4156,166.1563 Q802.0719,166.1563 801.8688,165.9531 Q801.6656,165.7656 801.5563,165.25 Q801.5094,164.8906 801.3219,164.7031 Q800.9938,164.3281 800.3844,164.1094 Q799.775,163.8906 799.15,163.8906 Q798.3844,163.8906 797.7516,164.2188 Q797.1188,164.5469 796.6266,165.2969 Q796.1344,166.0469 796.1344,167.0781 L796.1344,168.1719 Q796.1344,169.4063 797.025,170.2266 Q797.9156,171.0469 799.5094,171.0469 Q800.4469,171.0469 801.1031,170.7969 Q801.4938,170.6406 801.9156,170.2031 Q802.1813,169.9375 802.3297,169.8594 Q802.4781,169.7813 802.6813,169.7813 Q803.0094,169.7813 803.2672,170.0391 Q803.525,170.2969 803.525,170.6406 Q803.525,170.9844 803.1813,171.3906 Q802.6813,171.9688 801.8844,172.2969 Q800.8063,172.75 799.5094,172.75 Q797.9938,172.75 796.7906,172.125 Q795.8063,171.625 795.1188,170.5547 Q794.4313,169.4844 794.4313,168.2031 L794.4313,167.0469 Q794.4313,165.7188 795.0484,164.5703 Q795.6656,163.4219 796.7594,162.8047 Q797.8531,162.1875 799.0875,162.1875 Q799.8219,162.1875 800.4703,162.3516 Q801.1188,162.5156 801.6656,162.875 Z " fill="#000000"/><text fill="#000000" font-family="sans-serif" font-size="14" lengthAdjust="spacing" textLength="125" x="813.1" y="172.7285">HighQualityExporter</text><line style="stroke:#181818;stroke-width:0.5;" x1="784" x2="941" y1="183" y2="183"/><line style="stroke:#181818;stroke-width:0.5;" x1="784" x2="941" y1="191" y2="191"/><ellipse cx="794" cy="205.3047" fill="#84BE84" rx="3" ry="3" style="stroke:#038048;stroke-width:1.0;"/><text fill="#000000" font-family="sans-serif" font-size="14" lengthAdjust="spacing" textLength="132" x="803" y="209.5332">get_video_exporter()</text><ellipse cx="794" cy="222.9141" fill="#84BE84" rx="3" ry="3" style="stroke:#038048;stroke-width:1.0;"/><text fill="#000000" font-family="sans-serif" font-size="14" lengthAdjust="spacing" textLength="133" x="803" y="227.1426">get_audio_exporter()</text></g><!--MD5=[7a5971c0447f0b687716ce8ad93539d9]
class MasterQualityExporter--><g id="elem_MasterQualityExporter"><rect codeLine="55" fill="#F1F1F1" height="83.2188" id="MasterQualityExporter" rx="2.5" ry="2.5" style="stroke:#181818;stroke-width:0.5;" width="172" x="101.5" y="151"/><ellipse cx="116.5" cy="167" fill="#ADD1B2" rx="11" ry="11" style="stroke:#181818;stroke-width:1.0;"/><path d="M119.2656,162.875 Q119.4219,162.6563 119.6094,162.5469 Q119.7969,162.4375 120.0156,162.4375 Q120.3906,162.4375 120.625,162.6953 Q120.8594,162.9531 120.8594,163.5625 L120.8594,165.0156 Q120.8594,165.625 120.625,165.8906 Q120.3906,166.1563 120.0156,166.1563 Q119.6719,166.1563 119.4688,165.9531 Q119.2656,165.7656 119.1563,165.25 Q119.1094,164.8906 118.9219,164.7031 Q118.5938,164.3281 117.9844,164.1094 Q117.375,163.8906 116.75,163.8906 Q115.9844,163.8906 115.3516,164.2188 Q114.7188,164.5469 114.2266,165.2969 Q113.7344,166.0469 113.7344,167.0781 L113.7344,168.1719 Q113.7344,169.4063 114.625,170.2266 Q115.5156,171.0469 117.1094,171.0469 Q118.0469,171.0469 118.7031,170.7969 Q119.0938,170.6406 119.5156,170.2031 Q119.7813,169.9375 119.9297,169.8594 Q120.0781,169.7813 120.2813,169.7813 Q120.6094,169.7813 120.8672,170.0391 Q121.125,170.2969 121.125,170.6406 Q121.125,170.9844 120.7813,171.3906 Q120.2813,171.9688 119.4844,172.2969 Q118.4063,172.75 117.1094,172.75 Q115.5938,172.75 114.3906,172.125 Q113.4063,171.625 112.7188,170.5547 Q112.0313,169.4844 112.0313,168.2031 L112.0313,167.0469 Q112.0313,165.7188 112.6484,164.5703 Q113.2656,163.4219 114.3594,162.8047 Q115.4531,162.1875 116.6875,162.1875 Q117.4219,162.1875 118.0703,162.3516 Q118.7188,162.5156 119.2656,162.875 Z " fill="#000000"/><text fill="#000000" font-family="sans-serif" font-size="14" lengthAdjust="spacing" textLength="140" x="130.5" y="172.7285">MasterQualityExporter</text><line style="stroke:#181818;stroke-width:0.5;" x1="102.5" x2="272.5" y1="183" y2="183"/><line style="stroke:#181818;stroke-width:0.5;" x1="102.5" x2="272.5" y1="191" y2="191"/><ellipse cx="112.5" cy="205.3047" fill="#84BE84" rx="3" ry="3" style="stroke:#038048;stroke-width:1.0;"/><text fill="#000000" font-family="sans-serif" font-size="14" lengthAdjust="spacing" textLength="132" x="121.5" y="209.5332">get_video_exporter()</text><ellipse cx="112.5" cy="222.9141" fill="#84BE84" rx="3" ry="3" style="stroke:#038048;stroke-width:1.0;"/><text fill="#000000" font-family="sans-serif" font-size="14" lengthAdjust="spacing" textLength="133" x="121.5" y="227.1426">get_audio_exporter()</text></g><!--MD5=[82a25d2cf5ae36278dd0ba18fa3b6036]
reverse link VideoExporter to LosslessVideoExporter--><g id="link_VideoExporter_LosslessVideoExporter"><path codeLine="20" d="M315.03,243.4 C273.29,265.45 224.83,291.05 185.35,311.9 " fill="none" id="VideoExporter-backto-LosslessVideoExporter" style="stroke:#181818;stroke-width:1.0;"/><polygon fill="none" points="311.81,237.19,332.77,234.03,318.35,249.56,311.81,237.19" style="stroke:#181818;stroke-width:1.0;"/></g><!--MD5=[0b692b890625b04c13cd7db54f16cced]
reverse link VideoExporter to H264BPVideoExporter--><g id="link_VideoExporter_H264BPVideoExporter"><path codeLine="21" d="M529.35,239.64 C589.99,262.99 662.83,291.03 720.72,313.32 " fill="none" id="VideoExporter-backto-H264BPVideoExporter" style="stroke:#181818;stroke-width:1.0;"/><polygon fill="none" points="526.68,246.11,510.53,232.4,531.71,233.05,526.68,246.11" style="stroke:#181818;stroke-width:1.0;"/></g><!--MD5=[c7af60ec2c83124e919b55688adf8f69]
reverse link VideoExporter to H264Hi422PVideoExporter--><g id="link_VideoExporter_H264Hi422PVideoExporter"><path codeLine="22" d="M469.16,247.71 C492.25,268.68 518.22,292.28 539.66,311.76 " fill="none" id="VideoExporter-backto-H264Hi422PVideoExporter" style="stroke:#181818;stroke-width:1.0;"/><polygon fill="none" points="464.21,252.66,454.11,234.03,473.62,242.3,464.21,252.66" style="stroke:#181818;stroke-width:1.0;"/></g><!--MD5=[1c0171fe32fa3ca368ec6e806240f56e]
reverse link AudioExporter to AACAudioExporter--><g id="link_AudioExporter_AACAudioExporter"><path codeLine="38" d="M749.15,242.53 C779.23,256.11 812.4,270.31 843.5,282 C886.14,298.03 898.16,297.99 941.5,312 C947.21,313.85 953.07,315.76 958.97,317.71 " fill="none" id="AudioExporter-backto-AACAudioExporter" style="stroke:#181818;stroke-width:1.0;"/><polygon fill="none" points="746.15,248.86,730.86,234.19,751.96,236.12,746.15,248.86" style="stroke:#181818;stroke-width:1.0;"/></g><!--MD5=[e551b0568b03c7b6d459ce79d32ef83e]
reverse link AudioExporter to WAVAudioExporter--><g id="link_AudioExporter_WAVAudioExporter"><path codeLine="39" d="M552.34,243.4 C510.74,265.45 462.45,291.05 423.1,311.9 " fill="none" id="AudioExporter-backto-WAVAudioExporter" style="stroke:#181818;stroke-width:1.0;"/><polygon fill="none" points="549.07,237.21,570.02,234.03,555.63,249.58,549.07,237.21" style="stroke:#181818;stroke-width:1.0;"/></g><!--MD5=[09f32b4fdb24bb17bd7c16cab0bbce25]
reverse link ExporterFactory to FastExporter--><g id="link_ExporterFactory_FastExporter"><path codeLine="60" d="M934.27,102.03 C956.34,118.19 980.29,135.72 1001.09,150.94 " fill="none" id="ExporterFactory-backto-FastExporter" style="stroke:#181818;stroke-width:1.0;"/><polygon fill="none" points="929.84,107.46,917.83,90,938.11,96.17,929.84,107.46" style="stroke:#181818;stroke-width:1.0;"/></g><!--MD5=[aedd9c03733d2fd4327850c9b3d8881b]
reverse link ExporterFactory to HighQualityExporter--><g id="link_ExporterFactory_HighQualityExporter"><path codeLine="61" d="M862.5,110.29 C862.5,123.98 862.5,138.18 862.5,150.8 " fill="none" id="ExporterFactory-backto-HighQualityExporter" style="stroke:#181818;stroke-width:1.0;"/><polygon fill="none" points="855.5,110.19,862.5,90.19,869.5,110.19,855.5,110.19" style="stroke:#181818;stroke-width:1.0;"/></g><!--MD5=[28043c05833a8e43342567682246f3e8]
reverse link ExporterFactory to MasterQualityExporter--><g id="link_ExporterFactory_MasterQualityExporter"><path codeLine="62" d="M714.4,67.53 C597.83,83.69 432,111.06 290.5,151 C284.95,152.57 279.29,154.32 273.62,156.2 " fill="none" id="ExporterFactory-backto-MasterQualityExporter" style="stroke:#181818;stroke-width:1.0;"/><polygon fill="none" points="713.72,60.56,734.49,64.79,715.62,74.43,713.72,60.56" style="stroke:#181818;stroke-width:1.0;"/></g><!--MD5=[ec950a7ba53d4f942274407acdee50be]
link FastExporter to H264BPVideoExporter--><g id="link_FastExporter_H264BPVideoExporter"><path codeLine="64" d="M996.85,234.03 C963.15,256.93 921.01,285.56 886.61,308.94 " fill="none" id="FastExporter-to-H264BPVideoExporter" style="stroke:#181818;stroke-width:1.0;stroke-dasharray:7.0,7.0;"/><polygon fill="#181818" points="882.45,311.76,892.1396,309.9959,886.5814,308.9438,887.6336,303.3856,882.45,311.76" style="stroke:#181818;stroke-width:1.0;"/><text fill="#000000" font-family="sans-serif" font-size="13" lengthAdjust="spacing" textLength="57" x="947.5" y="278.4951">«creates»</text></g><!--MD5=[3b0a349d6d43296233b2930fa20ae6df]
link FastExporter to AACAudioExporter--><g id="link_FastExporter_AACAudioExporter"><path codeLine="65" d="M1057.52,234.03 C1058.08,256.19 1058.77,283.71 1059.35,306.64 " fill="none" id="FastExporter-to-AACAudioExporter" style="stroke:#181818;stroke-width:1.0;stroke-dasharray:7.0,7.0;"/><polygon fill="#181818" points="1059.48,311.76,1063.2473,302.6602,1059.3515,306.7617,1055.25,302.8658,1059.48,311.76" style="stroke:#181818;stroke-width:1.0;"/><text fill="#000000" font-family="sans-serif" font-size="13" lengthAdjust="spacing" textLength="57" x="1059.5" y="278.4951">«creates»</text></g><!--MD5=[d7ad426bc251e4ebb904c6106bda69ec]
link HighQualityExporter to H264Hi422PVideoExporter--><g id="link_HighQualityExporter_H264Hi422PVideoExporter"><path codeLine="68" d="M791.63,234.03 C751.43,257.03 701.13,285.79 660.16,309.22 " fill="none" id="HighQualityExporter-to-H264Hi422PVideoExporter" style="stroke:#181818;stroke-width:1.0;stroke-dasharray:7.0,7.0;"/><polygon fill="#181818" points="655.72,311.76,665.5205,310.7851,660.0656,309.287,661.5637,303.8321,655.72,311.76" style="stroke:#181818;stroke-width:1.0;"/><text fill="#000000" font-family="sans-serif" font-size="13" lengthAdjust="spacing" textLength="57" x="732.5" y="278.4951">«creates»</text></g><!--MD5=[2b1a755fb177bdfb327abf2baafcc963]
link HighQualityExporter to AACAudioExporter--><g id="link_HighQualityExporter_AACAudioExporter"><path codeLine="69" d="M851.08,234.01 C848.91,250.26 849.81,268.33 859.5,282 C860.32,283.15 906.23,299.29 953.96,315.84 " fill="none" id="HighQualityExporter-to-AACAudioExporter" style="stroke:#181818;stroke-width:1.0;stroke-dasharray:7.0,7.0;"/><polygon fill="#181818" points="958.88,317.55,951.6794,310.8306,954.154,315.9174,949.0672,318.3921,958.88,317.55" style="stroke:#181818;stroke-width:1.0;"/><text fill="#000000" font-family="sans-serif" font-size="13" lengthAdjust="spacing" textLength="57" x="860.5" y="278.4951">«creates»</text></g><!--MD5=[ca4f1d20a33c9a26a1f63a15f956c1b0]
link MasterQualityExporter to LosslessVideoExporter--><g id="link_MasterQualityExporter_LosslessVideoExporter"><path codeLine="72" d="M167.36,234.03 C156.26,256.37 142.45,284.17 131,307.22 " fill="none" id="MasterQualityExporter-to-LosslessVideoExporter" style="stroke:#181818;stroke-width:1.0;stroke-dasharray:7.0,7.0;"/><polygon fill="#181818" points="128.74,311.76,136.3185,305.4699,130.9589,307.2793,129.1494,301.9197,128.74,311.76" style="stroke:#181818;stroke-width:1.0;"/></g><!--MD5=[7e2349c39d2e56f2a1d0f38c179f5ba4]
link MasterQualityExporter to WAVAudioExporter--><g id="link_MasterQualityExporter_WAVAudioExporter"><path codeLine="73" d="M228.03,234.03 C250.65,256.65 278.86,284.86 302.08,308.08 " fill="none" id="MasterQualityExporter-to-WAVAudioExporter" style="stroke:#181818;stroke-width:1.0;stroke-dasharray:7.0,7.0;"/><polygon fill="#181818" points="305.76,311.76,302.2245,302.5676,302.2245,308.2245,296.5676,308.2245,305.76,311.76" style="stroke:#181818;stroke-width:1.0;"/></g><!--MD5=[33b14f2a9e336c3d5d1a72d09f76bc45]
@startuml

abstract class VideoExporter{
   + {abstract} prepare_export(video_data) 
   + {abstract} do_export(folder)
}

class LosslessVideoExporter{
   + prepare_export(video_data) 
   + do_export(folder)
}
class H264BPVideoExporter{
   + prepare_export(video_data) 
   + do_export(folder)
}
class H264Hi422PVideoExporter{
   + prepare_export(video_data) 
   + do_export(folder)
}

VideoExporter <|- - LosslessVideoExporter
VideoExporter <|- - H264BPVideoExporter
VideoExporter <|- - H264Hi422PVideoExporter


abstract class AudioExporter{
   + {abstract} prepare_export(video_data) 
   + {abstract} do_export(folder)
}
class AACAudioExporter{
   + prepare_export(video_data) 
   + do_export(folder)
}
class WAVAudioExporter{
   + prepare_export(video_data) 
   + do_export(folder)
}

AudioExporter <|- - AACAudioExporter
AudioExporter <|- - WAVAudioExporter

abstract class ExporterFactory {
    + {abstract} get_video_exporter(): VideoExporter
    + {abstract} get_audio_exporter(): AudioExporter
}

class FastExporter{
    + get_video_exporter()
    + get_audio_exporter()
}

class HighQualityExporter{
    + get_video_exporter()
    + get_audio_exporter()
}
class MasterQualityExporter{
    + get_video_exporter()
    + get_audio_exporter()
}

ExporterFactory <|- - FastExporter
ExporterFactory <|- - HighQualityExporter
ExporterFactory <|- - MasterQualityExporter

FastExporter ..> H264BPVideoExporter : <<creates>>
FastExporter ..> AACAudioExporter : <<creates>>


HighQualityExporter ..> H264Hi422PVideoExporter : <<creates>>
HighQualityExporter ..> AACAudioExporter : <<creates>>


MasterQualityExporter ..> LosslessVideoExporter
MasterQualityExporter ..> WAVAudioExporter 


@enduml

PlantUML version 1.2022.7(Mon Aug 22 19:01:30 CEST 2022)
(GPL source distribution)
Java Runtime: Java(TM) SE Runtime Environment
JVM: Java HotSpot(TM) 64-Bit Server VM
Default Encoding: Cp1252
Language: es
Country: ES
--></g></svg>